mtllib materials.mtl
v 0.295 0.4975001 0.2950003
v -0.2950002 0.4974999 0.2950001
v -0.2950001 0.5575 0.2950001
v 0.2949999 0.5575001 0.2950002
v 0.2950001 0.4975001 -0.2949998
v 0.295 0.5575001 -0.2949998
v -0.2950001 0.5575 -0.295
v -0.2950001 0.4974999 -0.2950001
v -0.2655001 0.5975 0.2655001
v 0.2654999 0.5975001 0.2655002
v -0.2655001 0.5975 -0.2655001
v 0.2655 0.5975001 -0.2654998
v 0.09500033 -1.1425 0.09499991
v -0.09499979 -1.1425 0.09499985
v -0.09500003 0.4974999 0.09500015
v 0.09499997 0.4975001 0.09500015
v 0.09500033 -1.1425 -0.09500015
v 0.095 0.4975001 -0.09499991
v -0.09500003 0.4975001 -0.09499991
v -0.09499973 -1.1425 -0.09500015
v 0.007438868 -1.5925 -0.00743854
v 0.007438838 -1.5925 0.007437825
v -0.007437587 -1.5925 -0.00743866
v -0.007437587 -1.5925 0.007437706
vn -1.192093E-07 0 1
vn 1.192093E-07 0 -1
vn 1.748456E-07 -1 0
vn -2.897316E-07 0.5935419 0.8048032
vn 1 1.748456E-07 1.192093E-07
vn -1 -1.748456E-07 -1.192093E-07
vn -0.8048034 0.5935416 -3.740032E-08
vn 1.531254E-08 0.5935416 -0.8048035
vn 0.804803 0.5935422 1.042631E-07
vn -1.748456E-07 1 0
vn -1.192093E-07 -1.748456E-07 1
vn 1.192093E-07 1.748456E-07 -1
vn 0.9815904 -0.1909988 -2.057264E-08
vn -1.748456E-07 1 1.748456E-07
vn 1 1.748456E-07 1.192093E-07
vn -1 -1.748456E-07 -1.192093E-07
vn 6.611936E-07 -0.190999 -0.9815903
vn -0.9815901 -0.1910004 -3.055148E-07
vn -9.332452E-07 -0.1910003 0.9815901
vn -1.117084E-05 -1 -1.748469E-07
usemtl mat22
f 4//1 3//1 2//1 1//1
f 8//2 7//2 6//2 5//2
f 2//3 8//3 5//3 1//3
f 10//4 9//4 3//4 4//4
f 5//5 6//5 4//5 1//5
f 3//6 7//6 8//6 2//6
f 9//7 11//7 7//7 3//7
f 11//8 12//8 6//8 7//8
f 12//9 10//9 4//9 6//9
f 12//10 11//10 9//10 10//10
f 16//11 15//11 14//11 13//11
f 20//12 19//12 18//12 17//12
f 22//13 21//13 17//13 13//13
f 18//14 19//14 15//14 16//14
f 17//15 18//15 16//15 13//15
f 15//16 19//16 20//16 14//16
f 21//17 23//17 20//17 17//17
f 23//18 24//18 14//18 20//18
f 24//19 22//19 13//19 14//19
f 24//20 23//20 21//20 22//20
